# Blender v2.76 (sub 0) OBJ File: 'platform.blend'
# www.blender.org
v 0.000000 1.165088 0.060357
v 0.000000 1.000000 -0.043285
v 1.008996 0.582544 0.060357
v 0.866025 0.500000 -0.043285
v 1.008996 -0.582544 0.060357
v 0.866025 -0.500000 -0.043285
v -0.000000 -1.165088 0.060357
v -0.000000 -1.000000 -0.043285
v -1.008996 -0.582544 0.060357
v -0.866025 -0.500000 -0.043285
v -1.008996 0.582544 0.060357
v -0.866025 0.500000 -0.043285
vn -0.293500 -0.508300 0.809600
vn -0.586900 0.000000 0.809600
vn -0.293500 0.508300 0.809600
vn 0.293500 0.508300 0.809600
vn 0.000000 0.000000 1.000000
vn 0.293500 -0.508300 0.809600
vn 0.586900 0.000000 0.809600
s off
f 2//1 4//1 3//1
f 4//2 6//2 5//2
f 6//3 8//3 7//3
f 8//4 10//4 9//4
f 2//5 10//5 6//5
f 11//6 12//6 2//6
f 10//7 12//7 11//7
f 1//1 2//1 3//1
f 3//2 4//2 5//2
f 5//3 6//3 7//3
f 7//4 8//4 9//4
f 6//5 4//5 2//5
f 2//5 12//5 10//5
f 10//5 8//5 6//5
f 1//6 11//6 2//6
f 9//7 10//7 11//7
