# Blender v2.76 (sub 0) OBJ File: 'simple_gun.blend'
# www.blender.org
v -0.005008 0.012237 -0.003662
v -0.005008 0.037290 0.003991
v -0.005008 0.014770 -0.011956
v -0.005008 0.039824 -0.004304
v 0.004827 0.012237 -0.003662
v 0.004827 0.037290 0.003991
v 0.004827 0.014770 -0.011956
v 0.004827 0.039824 -0.004304
vn -1.000000 0.000000 0.000000
vn 0.000000 0.292100 -0.956400
vn 1.000000 -0.000000 0.000000
vn 0.000000 -0.292100 0.956400
vn 0.000000 -0.956400 -0.292100
s off
f 4//1 3//1 1//1
f 8//2 7//2 3//2
f 6//3 5//3 7//3
f 2//4 1//4 5//4
f 3//5 7//5 5//5
f 2//1 4//1 1//1
f 4//2 8//2 3//2
f 8//3 6//3 7//3
f 6//4 2//4 5//4
f 1//5 3//5 5//5
v -0.000208 0.061944 0.083863
v -0.000208 0.067067 0.083863
v 0.002011 0.061944 0.085144
v 0.002011 0.067067 0.085144
v 0.002011 0.061944 0.087706
v 0.002011 0.067067 0.087706
v -0.000208 0.061944 0.088986
v -0.000208 0.067067 0.088986
v -0.002426 0.061944 0.087706
v -0.002426 0.067067 0.087706
v -0.002426 0.061944 0.085144
v -0.002426 0.067067 0.085144
vn 0.500000 0.000000 -0.866000
vn 1.000000 0.000000 0.000000
vn 0.500000 0.000000 0.866000
vn -0.500000 0.000000 0.866000
vn 0.000000 1.000000 0.000000
vn -0.500000 0.000000 -0.866000
vn -1.000000 0.000000 0.000000
s off
f 10//6 12//6 11//6
f 12//7 14//7 13//7
f 14//8 16//8 15//8
f 16//9 18//9 17//9
f 10//10 18//10 12//10
f 20//11 10//11 9//11
f 18//12 20//12 19//12
f 9//6 10//6 11//6
f 11//7 12//7 13//7
f 13//8 14//8 15//8
f 15//9 16//9 17//9
f 14//10 12//10 18//10
f 10//10 20//10 18//10
f 18//10 16//10 14//10
f 19//11 20//11 9//11
f 17//12 18//12 19//12
v -0.010567 0.062150 -0.077443
v -0.010567 0.068854 -0.077443
v -0.010567 0.062150 -0.084148
v -0.010567 0.068854 -0.084148
v -0.003863 0.062150 -0.077443
v -0.003863 0.068854 -0.077443
v -0.003863 0.062150 -0.084148
v -0.003863 0.068854 -0.084148
vn -1.000000 0.000000 0.000000
vn 0.000000 0.000000 -1.000000
vn 1.000000 0.000000 0.000000
vn 0.000000 0.000000 1.000000
vn 0.000000 1.000000 0.000000
s off
f 24//13 23//13 21//13
f 28//14 27//14 23//14
f 26//15 25//15 27//15
f 22//16 21//16 25//16
f 28//17 24//17 22//17
f 22//13 24//13 21//13
f 24//14 28//14 23//14
f 28//15 26//15 27//15
f 26//16 22//16 25//16
f 26//17 28//17 22//17
v 0.003235 0.062150 -0.077443
v 0.003235 0.068854 -0.077443
v 0.003235 0.062150 -0.084148
v 0.003235 0.068854 -0.084148
v 0.009940 0.062150 -0.077443
v 0.009940 0.068854 -0.077443
v 0.009940 0.062150 -0.084148
v 0.009940 0.068854 -0.084148
vn -1.000000 0.000000 0.000000
vn 0.000000 0.000000 -1.000000
vn 1.000000 0.000000 0.000000
vn 0.000000 0.000000 1.000000
vn 0.000000 1.000000 0.000000
s off
f 32//18 31//18 29//18
f 36//19 35//19 31//19
f 34//20 33//20 35//20
f 30//21 29//21 33//21
f 36//22 32//22 30//22
f 30//18 32//18 29//18
f 32//19 36//19 31//19
f 36//20 34//20 35//20
f 34//21 30//21 33//21
f 34//22 36//22 30//22
v -0.000490 0.057871 0.099377
v -0.000490 0.057871 0.107596
v 0.006698 0.053721 0.099377
v 0.006698 0.053721 0.107596
v 0.006698 0.045421 0.099377
v 0.006698 0.045421 0.107596
v -0.000490 0.041271 0.099377
v -0.000490 0.041271 0.107596
v -0.007678 0.045421 0.099377
v -0.007678 0.045421 0.107596
v -0.007678 0.053721 0.099377
v -0.007678 0.053721 0.107596
vn 0.500000 0.866000 0.000000
vn 1.000000 0.000000 0.000000
vn 0.500000 -0.866000 0.000000
vn -0.500000 -0.866000 0.000000
vn 0.000000 0.000000 1.000000
vn -0.500000 0.866000 0.000000
vn -1.000000 0.000000 0.000000
s off
f 38//23 40//23 39//23
f 40//24 42//24 41//24
f 42//25 44//25 43//25
f 44//26 46//26 45//26
f 38//27 46//27 42//27
f 48//28 38//28 37//28
f 46//29 48//29 47//29
f 37//23 38//23 39//23
f 39//24 40//24 41//24
f 41//25 42//25 43//25
f 43//26 44//26 45//26
f 42//27 40//27 38//27
f 38//27 48//27 46//27
f 46//27 44//27 42//27
f 47//28 48//28 37//28
f 45//29 46//29 47//29
v -0.003219 -0.007071 0.026694
v -0.003219 0.005070 0.026694
v -0.003219 -0.007071 -0.033452
v -0.003219 0.005070 -0.033452
v 0.004311 -0.007071 0.026694
v 0.004311 0.005070 0.026694
v 0.004311 -0.007071 -0.033452
v 0.004311 0.005070 -0.033452
vn -1.000000 0.000000 0.000000
vn 1.000000 0.000000 0.000000
vn 0.000000 0.000000 1.000000
vn 0.000000 -1.000000 0.000000
vn 0.000000 1.000000 0.000000
s off
f 52//30 51//30 49//30
f 54//31 53//31 55//31
f 50//32 49//32 53//32
f 51//33 55//33 53//33
f 56//34 52//34 50//34
f 50//30 52//30 49//30
f 56//31 54//31 55//31
f 54//32 50//32 53//32
f 49//33 51//33 53//33
f 54//34 56//34 50//34
v -0.002855 -0.007031 0.027685
v -0.002855 0.034001 0.043037
v -0.002855 -0.002131 0.014588
v -0.002855 0.038901 0.029941
v 0.003810 -0.007031 0.027685
v 0.003810 0.034001 0.043037
v 0.003810 -0.002131 0.014588
v 0.003810 0.038901 0.029941
vn -1.000000 0.000000 0.000000
vn 0.000000 0.350400 -0.936600
vn 1.000000 0.000000 0.000000
vn 0.000000 -0.350400 0.936600
s off
f 60//35 59//35 57//35
f 64//36 63//36 59//36
f 62//37 61//37 63//37
f 58//38 57//38 61//38
f 58//35 60//35 57//35
f 60//36 64//36 59//36
f 64//37 62//37 63//37
f 62//38 58//38 61//38
v -0.010258 -0.065051 -0.040890
v -0.010258 0.034715 -0.020777
v -0.010258 -0.054960 -0.090339
v -0.010258 0.043604 -0.070226
v 0.009146 -0.065051 -0.040890
v 0.009146 0.034715 -0.020777
v 0.009146 -0.054960 -0.090339
v 0.009146 0.043604 -0.070226
vn -1.000000 0.000000 0.000000
vn 0.000000 0.199900 -0.979800
vn 1.000000 0.000000 0.000000
vn 0.000000 -0.197600 0.980300
vn 0.000000 -0.979800 -0.199900
s off
f 68//39 67//39 65//39
f 72//40 71//40 67//40
f 72//41 70//41 69//41
f 66//42 65//42 69//42
f 67//43 71//43 69//43
f 66//39 68//39 65//39
f 68//40 72//40 67//40
f 71//41 72//41 69//41
f 70//42 66//42 69//42
f 65//43 67//43 69//43
v 0.011014 0.032912 -0.086688
v 0.011014 0.062398 -0.086688
v 0.011014 0.032912 0.098583
v 0.011014 0.062398 0.098583
v -0.011714 0.032912 -0.086688
v -0.011714 0.062398 -0.086688
v -0.011714 0.032912 0.098583
v -0.011714 0.062398 0.098583
v 0.007668 0.037253 -0.091252
v 0.007668 0.058057 -0.091252
v -0.008367 0.037253 -0.091252
v -0.008367 0.058057 -0.091252
v 0.008309 0.036421 0.101987
v 0.008309 0.058888 0.101987
v -0.009009 0.036421 0.101987
v -0.009009 0.058888 0.101987
vn 1.000000 0.000000 0.000000
vn 0.000000 -0.696200 0.717800
vn -1.000000 0.000000 0.000000
vn 0.000000 0.724600 -0.689200
vn 0.000000 -1.000000 0.000000
vn 0.000000 1.000000 0.000000
vn 0.000000 0.000000 -1.000000
vn -0.806500 0.000000 -0.591300
vn 0.806500 0.000000 -0.591300
vn 0.000000 -0.724600 -0.689200
vn 0.000000 0.000000 1.000000
vn 0.000000 0.696200 0.717800
vn 0.782900 0.000000 0.622200
vn -0.782900 0.000000 0.622200
s off
f 76//44 75//44 73//44
f 75//45 85//45 87//45
f 78//46 77//46 79//46
f 74//47 82//47 84//47
f 75//48 79//48 77//48
f 80//49 76//49 74//49
f 82//50 81//50 83//50
f 78//51 84//51 83//51
f 73//52 81//52 82//52
f 77//53 83//53 81//53
f 88//54 87//54 85//54
f 80//55 88//55 86//55
f 76//56 86//56 85//56
f 79//57 87//57 88//57
f 74//44 76//44 73//44
f 79//45 75//45 87//45
f 80//46 78//46 79//46
f 78//47 74//47 84//47
f 73//48 75//48 77//48
f 78//49 80//49 74//49
f 84//50 82//50 83//50
f 77//51 78//51 83//51
f 74//52 73//52 82//52
f 73//53 77//53 81//53
f 86//54 88//54 85//54
f 76//55 80//55 86//55
f 75//56 76//56 85//56
f 80//57 79//57 88//57
